<mxfile host="app.diagrams.net" modified="2023-12-02T22:07:32.193Z" agent="Mozilla/5.0 (Windows NT 10.0; Win64; x64) AppleWebKit/537.36 (KHTML, like Gecko) Chrome/119.0.0.0 Safari/537.36" etag="gE1PdNqJkMuYMAdHVF5R" version="22.1.5" type="device">
  <diagram name="Page-1" id="2YBvvXClWsGukQMizWep">
    <mxGraphModel dx="2004" dy="523" grid="1" gridSize="10" guides="1" tooltips="1" connect="1" arrows="1" fold="1" page="1" pageScale="1" pageWidth="850" pageHeight="1100" math="0" shadow="0">
      <root>
        <mxCell id="0" />
        <mxCell id="1" parent="0" />
        <mxCell id="UvIj17emJKSWoCoz6rae-1" value="CKB platform" style="shape=umlLifeline;perimeter=lifelinePerimeter;whiteSpace=wrap;html=1;container=0;dropTarget=0;collapsible=0;recursiveResize=0;outlineConnect=0;portConstraint=eastwest;newEdgeStyle={&quot;edgeStyle&quot;:&quot;elbowEdgeStyle&quot;,&quot;elbow&quot;:&quot;vertical&quot;,&quot;curved&quot;:0,&quot;rounded&quot;:0};" vertex="1" parent="1">
          <mxGeometry x="70" y="50" width="100" height="490" as="geometry" />
        </mxCell>
        <mxCell id="UvIj17emJKSWoCoz6rae-2" value="" style="html=1;points=[];perimeter=orthogonalPerimeter;outlineConnect=0;targetShapes=umlLifeline;portConstraint=eastwest;newEdgeStyle={&quot;edgeStyle&quot;:&quot;elbowEdgeStyle&quot;,&quot;elbow&quot;:&quot;vertical&quot;,&quot;curved&quot;:0,&quot;rounded&quot;:0};" vertex="1" parent="UvIj17emJKSWoCoz6rae-1">
          <mxGeometry x="45" y="70" width="10" height="30" as="geometry" />
        </mxCell>
        <mxCell id="UvIj17emJKSWoCoz6rae-3" value="" style="html=1;points=[];perimeter=orthogonalPerimeter;outlineConnect=0;targetShapes=umlLifeline;portConstraint=eastwest;newEdgeStyle={&quot;edgeStyle&quot;:&quot;elbowEdgeStyle&quot;,&quot;elbow&quot;:&quot;vertical&quot;,&quot;curved&quot;:0,&quot;rounded&quot;:0};" vertex="1" parent="UvIj17emJKSWoCoz6rae-1">
          <mxGeometry x="45" y="260" width="10" height="220" as="geometry" />
        </mxCell>
        <mxCell id="UvIj17emJKSWoCoz6rae-4" value="" style="html=1;points=[[0,0,0,0,5],[0,1,0,0,-5],[1,0,0,0,5],[1,1,0,0,-5]];perimeter=orthogonalPerimeter;outlineConnect=0;targetShapes=umlLifeline;portConstraint=eastwest;newEdgeStyle={&quot;curved&quot;:0,&quot;rounded&quot;:0};" vertex="1" parent="UvIj17emJKSWoCoz6rae-1">
          <mxGeometry x="50" y="280" width="10" height="20" as="geometry" />
        </mxCell>
        <mxCell id="UvIj17emJKSWoCoz6rae-5" value="&lt;font style=&quot;font-size: 9px;&quot;&gt;6 : validateTournamentInfos()&lt;/font&gt;" style="html=1;align=left;spacingLeft=2;endArrow=block;rounded=0;edgeStyle=orthogonalEdgeStyle;curved=0;rounded=0;" edge="1" parent="UvIj17emJKSWoCoz6rae-1" target="UvIj17emJKSWoCoz6rae-4">
          <mxGeometry relative="1" as="geometry">
            <mxPoint x="55" y="270.0344827586208" as="sourcePoint" />
            <Array as="points">
              <mxPoint x="80" y="270" />
              <mxPoint x="80" y="280" />
            </Array>
          </mxGeometry>
        </mxCell>
        <mxCell id="UvIj17emJKSWoCoz6rae-6" value="&lt;font style=&quot;font-size: 9px;&quot;&gt;Educator&lt;/font&gt;" style="shape=umlActor;verticalLabelPosition=bottom;verticalAlign=top;html=1;outlineConnect=0;" vertex="1" parent="1">
          <mxGeometry x="-90" y="50" width="20" height="40" as="geometry" />
        </mxCell>
        <mxCell id="UvIj17emJKSWoCoz6rae-7" value="" style="endArrow=none;dashed=1;html=1;rounded=0;" edge="1" parent="1" source="UvIj17emJKSWoCoz6rae-9">
          <mxGeometry width="50" height="50" relative="1" as="geometry">
            <mxPoint x="-80" y="360" as="sourcePoint" />
            <mxPoint x="-80" y="110" as="targetPoint" />
          </mxGeometry>
        </mxCell>
        <mxCell id="UvIj17emJKSWoCoz6rae-8" value="" style="endArrow=none;dashed=1;html=1;rounded=0;" edge="1" parent="1" target="UvIj17emJKSWoCoz6rae-9">
          <mxGeometry width="50" height="50" relative="1" as="geometry">
            <mxPoint x="-80" y="540" as="sourcePoint" />
            <mxPoint x="-80.00000000000006" y="511.3" as="targetPoint" />
          </mxGeometry>
        </mxCell>
        <mxCell id="UvIj17emJKSWoCoz6rae-9" value="" style="html=1;points=[];perimeter=orthogonalPerimeter;outlineConnect=0;targetShapes=umlLifeline;portConstraint=eastwest;newEdgeStyle={&quot;edgeStyle&quot;:&quot;elbowEdgeStyle&quot;,&quot;elbow&quot;:&quot;vertical&quot;,&quot;curved&quot;:0,&quot;rounded&quot;:0};" vertex="1" parent="1">
          <mxGeometry x="-85" y="120" width="10" height="410" as="geometry" />
        </mxCell>
        <mxCell id="UvIj17emJKSWoCoz6rae-10" value="&lt;font style=&quot;font-size: 9px;&quot;&gt;1 : click(createTournamentButton)&lt;/font&gt;" style="html=1;verticalAlign=bottom;endArrow=block;edgeStyle=elbowEdgeStyle;elbow=vertical;curved=0;rounded=0;" edge="1" parent="1" source="UvIj17emJKSWoCoz6rae-9" target="UvIj17emJKSWoCoz6rae-2">
          <mxGeometry relative="1" as="geometry">
            <mxPoint x="-40" y="120" as="sourcePoint" />
            <Array as="points">
              <mxPoint x="40" y="120" />
            </Array>
            <mxPoint x="125" y="120" as="targetPoint" />
          </mxGeometry>
        </mxCell>
        <mxCell id="UvIj17emJKSWoCoz6rae-11" value="&lt;font style=&quot;font-size: 9px;&quot;&gt;2 : showPage(tournamentCreationPage)&lt;/font&gt;" style="html=1;verticalAlign=bottom;endArrow=openThin;dashed=1;endSize=8;edgeStyle=elbowEdgeStyle;elbow=vertical;curved=0;rounded=0;endFill=0;" edge="1" parent="1" source="UvIj17emJKSWoCoz6rae-2" target="UvIj17emJKSWoCoz6rae-9">
          <mxGeometry relative="1" as="geometry">
            <mxPoint x="-40" y="150" as="targetPoint" />
            <Array as="points">
              <mxPoint x="15" y="150" />
            </Array>
            <mxPoint x="90" y="150" as="sourcePoint" />
          </mxGeometry>
        </mxCell>
        <mxCell id="UvIj17emJKSWoCoz6rae-12" value="" style="html=1;points=[[0,0,0,0,5],[0,1,0,0,-5],[1,0,0,0,5],[1,1,0,0,-5]];perimeter=orthogonalPerimeter;outlineConnect=0;targetShapes=umlLifeline;portConstraint=eastwest;newEdgeStyle={&quot;curved&quot;:0,&quot;rounded&quot;:0};" vertex="1" parent="1">
          <mxGeometry x="-80" y="180" width="10" height="20" as="geometry" />
        </mxCell>
        <mxCell id="UvIj17emJKSWoCoz6rae-13" value="&lt;font style=&quot;font-size: 9px;&quot;&gt;5 : send(tournamentInfos)&lt;/font&gt;" style="html=1;verticalAlign=bottom;endArrow=block;edgeStyle=elbowEdgeStyle;elbow=vertical;curved=0;rounded=0;" edge="1" parent="1">
          <mxGeometry relative="1" as="geometry">
            <mxPoint x="-75.00000000000023" y="310" as="sourcePoint" />
            <Array as="points">
              <mxPoint x="40" y="310" />
            </Array>
            <mxPoint x="115" y="310" as="targetPoint" />
          </mxGeometry>
        </mxCell>
        <mxCell id="UvIj17emJKSWoCoz6rae-14" value="&lt;font style=&quot;font-size: 9px;&quot;&gt;7 : displayOutcome(confirmation)&lt;/font&gt;" style="html=1;verticalAlign=bottom;endArrow=openThin;dashed=1;endSize=8;edgeStyle=elbowEdgeStyle;elbow=vertical;curved=0;rounded=0;endFill=0;" edge="1" parent="1">
          <mxGeometry relative="1" as="geometry">
            <mxPoint x="-75.00000000000023" y="390" as="targetPoint" />
            <Array as="points">
              <mxPoint x="20" y="390" />
            </Array>
            <mxPoint x="115" y="390" as="sourcePoint" />
          </mxGeometry>
        </mxCell>
        <mxCell id="UvIj17emJKSWoCoz6rae-15" value="&lt;b&gt;alt &lt;/b&gt;outcome == true" style="shape=umlFrame;whiteSpace=wrap;html=1;pointerEvents=0;width=120;height=15;fontSize=11;" vertex="1" parent="1">
          <mxGeometry x="-150" y="360" width="320" height="180" as="geometry" />
        </mxCell>
        <mxCell id="UvIj17emJKSWoCoz6rae-16" value="[then]" style="text;html=1;strokeColor=none;fillColor=none;align=center;verticalAlign=middle;whiteSpace=wrap;rounded=0;fontSize=10;" vertex="1" parent="1">
          <mxGeometry x="-140" y="380" width="35" height="10" as="geometry" />
        </mxCell>
        <mxCell id="UvIj17emJKSWoCoz6rae-21" value="" style="endArrow=none;dashed=1;html=1;rounded=0;exitX=0.001;exitY=0.409;exitDx=0;exitDy=0;exitPerimeter=0;strokeWidth=2;" edge="1" parent="1">
          <mxGeometry width="50" height="50" relative="1" as="geometry">
            <mxPoint x="-150" y="450.75" as="sourcePoint" />
            <mxPoint x="170" y="450" as="targetPoint" />
          </mxGeometry>
        </mxCell>
        <mxCell id="UvIj17emJKSWoCoz6rae-22" value="[else]" style="text;html=1;strokeColor=none;fillColor=none;align=center;verticalAlign=middle;whiteSpace=wrap;rounded=0;fontSize=10;" vertex="1" parent="1">
          <mxGeometry x="-140" y="460" width="35" height="10" as="geometry" />
        </mxCell>
        <mxCell id="UvIj17emJKSWoCoz6rae-23" value="&lt;font style=&quot;font-size: 9px;&quot;&gt;10 : displayOutcome(error)&lt;/font&gt;" style="html=1;verticalAlign=bottom;endArrow=openThin;dashed=1;endSize=8;edgeStyle=elbowEdgeStyle;elbow=vertical;curved=0;rounded=0;endFill=0;" edge="1" parent="1" source="UvIj17emJKSWoCoz6rae-3" target="UvIj17emJKSWoCoz6rae-9">
          <mxGeometry relative="1" as="geometry">
            <mxPoint x="-75.00000000000023" y="490" as="targetPoint" />
            <Array as="points">
              <mxPoint x="20" y="480" />
            </Array>
            <mxPoint x="115" y="490" as="sourcePoint" />
          </mxGeometry>
        </mxCell>
        <mxCell id="UvIj17emJKSWoCoz6rae-24" value="&lt;font style=&quot;font-size: 9px;&quot;&gt;3 : fillSignUpForm(data)&lt;/font&gt;" style="html=1;align=left;spacingLeft=2;endArrow=block;rounded=0;edgeStyle=orthogonalEdgeStyle;curved=0;rounded=0;" edge="1" parent="1" target="UvIj17emJKSWoCoz6rae-12" source="UvIj17emJKSWoCoz6rae-9">
          <mxGeometry relative="1" as="geometry">
            <mxPoint x="-70" y="170" as="sourcePoint" />
            <Array as="points">
              <mxPoint x="-50" y="170" />
              <mxPoint x="-50" y="180" />
            </Array>
            <mxPoint x="-65" y="200" as="targetPoint" />
          </mxGeometry>
        </mxCell>
        <mxCell id="UvIj17emJKSWoCoz6rae-25" value="&lt;p style=&quot;line-height: 120%;&quot;&gt;&lt;font style=&quot;font-size: 10px;&quot;&gt;&lt;b&gt;loop&lt;/b&gt;: outcome == false&lt;/font&gt;&lt;/p&gt;" style="shape=umlFrame;whiteSpace=wrap;html=1;pointerEvents=0;width=70;height=40;verticalAlign=middle;horizontal=1;labelPosition=center;verticalLabelPosition=middle;align=center;" vertex="1" parent="1">
          <mxGeometry x="-170" y="160" width="450" height="390" as="geometry" />
        </mxCell>
        <mxCell id="UvIj17emJKSWoCoz6rae-26" value="" style="html=1;points=[[0,0,0,0,5],[0,1,0,0,-5],[1,0,0,0,5],[1,1,0,0,-5]];perimeter=orthogonalPerimeter;outlineConnect=0;targetShapes=umlLifeline;portConstraint=eastwest;newEdgeStyle={&quot;curved&quot;:0,&quot;rounded&quot;:0};" vertex="1" parent="1">
          <mxGeometry x="-80" y="280" width="10" height="20" as="geometry" />
        </mxCell>
        <mxCell id="UvIj17emJKSWoCoz6rae-27" value="&lt;font style=&quot;font-size: 9px;&quot;&gt;4 : click(confirmationButton)&lt;/font&gt;" style="html=1;align=left;spacingLeft=2;endArrow=block;rounded=0;edgeStyle=orthogonalEdgeStyle;curved=0;rounded=0;" edge="1" parent="1" target="UvIj17emJKSWoCoz6rae-26">
          <mxGeometry relative="1" as="geometry">
            <mxPoint x="-75" y="270" as="sourcePoint" />
            <Array as="points">
              <mxPoint x="-50" y="270" />
              <mxPoint x="-50" y="280" />
            </Array>
            <mxPoint x="-65" y="300" as="targetPoint" />
          </mxGeometry>
        </mxCell>
        <mxCell id="UvIj17emJKSWoCoz6rae-28" value="&lt;b&gt;ref&lt;/b&gt;" style="shape=umlFrame;whiteSpace=wrap;html=1;pointerEvents=0;width=40;height=15;fillStyle=auto;fillColor=default;gradientColor=none;swimlaneFillColor=default;" vertex="1" parent="1">
          <mxGeometry x="-120" y="210" width="270" height="50" as="geometry" />
        </mxCell>
        <mxCell id="UvIj17emJKSWoCoz6rae-29" value="Badge creation" style="text;html=1;strokeColor=none;fillColor=none;align=center;verticalAlign=middle;whiteSpace=wrap;rounded=0;fontStyle=1" vertex="1" parent="1">
          <mxGeometry x="-30" y="220" width="90" height="30" as="geometry" />
        </mxCell>
        <mxCell id="UvIj17emJKSWoCoz6rae-30" value="&lt;font style=&quot;font-size: 9px;&quot;&gt;8 : click(continueButton)&lt;/font&gt;" style="html=1;verticalAlign=bottom;endArrow=block;edgeStyle=elbowEdgeStyle;elbow=vertical;curved=0;rounded=0;" edge="1" parent="1" source="UvIj17emJKSWoCoz6rae-9" target="UvIj17emJKSWoCoz6rae-3">
          <mxGeometry relative="1" as="geometry">
            <mxPoint x="-75.00000000000023" y="410" as="sourcePoint" />
            <Array as="points">
              <mxPoint x="40" y="410" />
            </Array>
            <mxPoint x="115" y="410" as="targetPoint" />
          </mxGeometry>
        </mxCell>
        <mxCell id="UvIj17emJKSWoCoz6rae-31" value="&lt;font style=&quot;font-size: 9px;&quot;&gt;9 : showPage(riepilogativeTournamentPage)&lt;/font&gt;" style="html=1;verticalAlign=bottom;endArrow=openThin;dashed=1;endSize=8;edgeStyle=elbowEdgeStyle;elbow=vertical;curved=0;rounded=0;endFill=0;" edge="1" parent="1" source="UvIj17emJKSWoCoz6rae-3" target="UvIj17emJKSWoCoz6rae-9">
          <mxGeometry relative="1" as="geometry">
            <mxPoint x="-75.00000000000023" y="430" as="targetPoint" />
            <Array as="points">
              <mxPoint x="20" y="430" />
            </Array>
            <mxPoint x="115" y="430" as="sourcePoint" />
          </mxGeometry>
        </mxCell>
        <mxCell id="UvIj17emJKSWoCoz6rae-32" value="&lt;font style=&quot;font-size: 9px;&quot;&gt;11 : click(continueButton)&lt;/font&gt;" style="html=1;verticalAlign=bottom;endArrow=block;edgeStyle=elbowEdgeStyle;elbow=vertical;curved=0;rounded=0;" edge="1" parent="1" source="UvIj17emJKSWoCoz6rae-9" target="UvIj17emJKSWoCoz6rae-3">
          <mxGeometry relative="1" as="geometry">
            <mxPoint x="-75" y="500" as="sourcePoint" />
            <Array as="points">
              <mxPoint x="40" y="500" />
            </Array>
            <mxPoint x="115" y="500" as="targetPoint" />
          </mxGeometry>
        </mxCell>
        <mxCell id="UvIj17emJKSWoCoz6rae-33" value="&lt;font style=&quot;font-size: 9px;&quot;&gt;12 : showPage(tournamentCreationPage)&lt;/font&gt;" style="html=1;verticalAlign=bottom;endArrow=openThin;dashed=1;endSize=8;edgeStyle=elbowEdgeStyle;elbow=vertical;curved=0;rounded=0;endFill=0;" edge="1" parent="1" source="UvIj17emJKSWoCoz6rae-3" target="UvIj17emJKSWoCoz6rae-9">
          <mxGeometry relative="1" as="geometry">
            <mxPoint x="-75" y="520" as="targetPoint" />
            <Array as="points">
              <mxPoint x="20" y="520" />
            </Array>
            <mxPoint x="115" y="520" as="sourcePoint" />
          </mxGeometry>
        </mxCell>
      </root>
    </mxGraphModel>
  </diagram>
</mxfile>
